# xmcd CD database file
#
# Track frame offsets:
#	150
#	4833
#	19513
#	38988
#	58388
#	80812
#	105225
#
# Disc length: 1488 seconds
#
# Revision: 0
# Processed by: cddbd v1.5.2PL0 Copyright (c) Steve Scherf et al.
# Submitted via: CDex 1.70beta3
#
DISCID=5005ce07
DTITLE=fox capture plan - FLEXIBLE
DYEAR=2012
DGENRE=Jazz
TTITLE0=Right Here,
TTITLE1=capture the Initial "F"
TTITLE2=Flexible
TTITLE3=解放される逆光
TTITLE4=Inflection
TTITLE5=Hyperballad
TTITLE6=R__nc_rn_t__n
EXTD=YEAR: 2012
EXTT0=
EXTT1=
EXTT2=
EXTT3=
EXTT4=
EXTT5=
EXTT6=
PLAYORDER=
